<?xml version="1.0" encoding="UTF-8"?>
<svg version="1.1" xmlns="http://www.w3.org/2000/svg" width="289" height="273">
<path d="M0 0 C1.32 0 2.64 0 4 0 C4.09498779 0.95962646 4.18997559 1.91925293 4.2878418 2.90795898 C11.10919057 71.05239284 32.61752731 132.91642647 81 183 C82.0202124 184.06105957 82.0202124 184.06105957 83.06103516 185.14355469 C92.49120503 194.90522954 101.99551073 204.04281708 113 212 C113.66354492 212.48662109 114.32708984 212.97324219 115.01074219 213.47460938 C124.68391884 220.55123096 134.54939008 227.13000656 145 233 C145.7410498 233.42104004 146.48209961 233.84208008 147.24560547 234.27587891 C191.59692825 259.24571921 238.78859093 267.72251457 289 269 C289 270.32 289 271.64 289 273 C193.63 273 98.26 273 0 273 C0 182.91 0 92.82 0 0 Z " fill="#101828" transform="translate(0,0)"/>
<path d="M0 0 C0.33 0 0.66 0 1 0 C1.09498779 0.95962646 1.18997559 1.91925293 1.2878418 2.90795898 C8.10919057 71.05239284 29.61752731 132.91642647 78 183 C79.0202124 184.06105957 79.0202124 184.06105957 80.06103516 185.14355469 C89.49120503 194.90522954 98.99551073 204.04281708 110 212 C110.66354492 212.48662109 111.32708984 212.97324219 112.01074219 213.47460938 C121.68391884 220.55123096 131.54939008 227.13000656 142 233 C142.7410498 233.42104004 143.48209961 233.84208008 144.24560547 234.27587891 C188.59692825 259.24571921 235.78859093 267.72251457 286 269 C286 269.66 286 270.32 286 271 C259.13294547 271.30881672 233.05561392 270.13522966 207 263 C206.14148438 262.81179688 205.28296875 262.62359375 204.3984375 262.4296875 C189.51064233 259.11662886 174.94351586 253.11867363 161 247 C161 246.34 161 245.68 161 245 C157.7 244.01 154.4 243.02 151 242 C151 241.34 151 240.68 151 240 C150.19046875 239.94070312 149.3809375 239.88140625 148.546875 239.8203125 C143.81132451 238.72508606 140.32153776 236.46396231 136.25 233.875 C135.44868652 233.37436035 134.64737305 232.8737207 133.82177734 232.35791016 C128.08327735 228.74909075 122.45688758 225.02422646 117 221 C115.62714844 220.00806641 115.62714844 220.00806641 114.2265625 218.99609375 C101.61499196 209.74429856 90.26471666 199.45378832 79.1875 188.4375 C78.69953949 187.95480652 78.21157898 187.47211304 77.70883179 186.97479248 C71.01251241 180.33441315 64.81435102 173.43046418 59 166 C58.23925171 165.02824829 58.23925171 165.02824829 57.46313477 164.03686523 C39.08935695 140.15061589 25.58442487 114.14445781 15 86 C14.6486499 85.08404053 14.2972998 84.16808105 13.93530273 83.22436523 C11.47460229 76.68176266 9.58802984 70.10187825 7.9375 63.3125 C7.68000977 62.26231689 7.42251953 61.21213379 7.15722656 60.13012695 C2.33483898 40.19728602 -0.50951315 20.52205758 0 0 Z " fill="#101828" transform="translate(3,0)"/>
<path d="M0 0 C6.67717093 -0.60701554 11.53929617 1.54588661 17.625 4.125 C52.30796219 18.18677813 87.91775254 22.05654847 125 23 C125 23.66 125 24.32 125 25 C98.13294547 25.30881672 72.05561392 24.13522966 46 17 C44.71222656 16.71769531 44.71222656 16.71769531 43.3984375 16.4296875 C28.51064233 13.11662886 13.94351586 7.11867363 0 1 C0 0.67 0 0.34 0 0 Z " fill="#101828" transform="translate(164,246)"/>
<path d="M0 0 C4.88960023 -0.3943226 9.14101061 -0.01493528 13.9296875 0.94921875 C23.61360105 2.60827805 33.45111326 2.73072717 43.25 3.125 C45.2669561 3.21156603 47.28388365 3.29880019 49.30078125 3.38671875 C54.20022553 3.59885084 59.0999677 3.80193527 64 4 C64 4.66 64 5.32 64 6 C42.55 6 21.1 6 -1 6 C-1.33 5.01 -1.66 4.02 -2 3 C-1.34 2.01 -0.68 1.02 0 0 Z " fill="#101828" transform="translate(225,267)"/>
<path d="M0 0 C3.84902024 2.8278516 7.64598506 5.69557731 11.34375 8.71875 C30.84516608 24.65044193 52.3282105 37.09701778 75 48 C73 49 73 49 69.7421875 48.00390625 C68.4502948 47.53110016 67.16131362 47.05028031 65.875 46.5625 C65.21628906 46.31951172 64.55757813 46.07652344 63.87890625 45.82617188 C62.25008662 45.22421679 60.62470425 44.61297588 59 44 C59 43.34 59 42.68 59 42 C57.78570312 41.91105469 57.78570312 41.91105469 56.546875 41.8203125 C51.81132451 40.72508606 48.32153776 38.46396231 44.25 35.875 C43.44868652 35.37436035 42.64737305 34.8737207 41.82177734 34.35791016 C36.08341362 30.74917645 30.4556617 27.02571364 25 23 C24.07316406 22.32710937 23.14632812 21.65421875 22.19140625 20.9609375 C16.5845719 16.83419076 11.11607546 12.5592861 5.75 8.125 C5.17660889 7.66061523 4.60321777 7.19623047 4.01245117 6.71777344 C2.61581401 5.54558434 1.29974574 4.2787821 0 3 C0 2.01 0 1.02 0 0 Z " fill="#101828" transform="translate(95,198)"/>
<path d="M0 0 C0.99 0 1.98 0 3 0 C3.66 9.24 4.32 18.48 5 28 C4.01 28 3.02 28 2 28 C1.34 28.33 0.68 28.66 0 29 C0 19.43 0 9.86 0 0 Z " fill="#1E2432" transform="translate(0,0)"/>
<path d="M0 0 C5.43733055 4.52991796 10.46458931 9.34294216 15.4375 14.375 C16.16904297 15.11105469 16.90058594 15.84710938 17.65429688 16.60546875 C19.43852723 18.40136074 21.22036124 20.19955985 23 22 C22.67 22.99 22.34 23.98 22 25 C18.85729827 21.93138275 15.72451195 18.85308324 12.60058594 15.76538086 C11.53621043 14.71610403 10.46915963 13.66953389 9.39941406 12.62573242 C7.86334394 11.12599791 6.33711775 9.61683319 4.8125 8.10546875 C3.89082031 7.19949951 2.96914062 6.29353027 2.01953125 5.36010742 C0 3 0 3 0 0 Z " fill="#101828" transform="translate(72,175)"/>
<path d="M0 0 C8.06050562 -0.35619256 15.21179455 0.20081096 23.02734375 2.24609375 C26.00522337 3.00132472 28.96473641 3.53408025 32 4 C32 4.33 32 4.66 32 5 C24.97289671 5.27289722 18.40898441 4.22312164 11.5 3 C10.39140625 2.80921875 9.2828125 2.6184375 8.140625 2.421875 C5.42599799 1.95383586 2.71257905 1.47974117 0 1 C0 0.67 0 0.34 0 0 Z " fill="#101828" transform="translate(222,265)"/>
<path d="M0 0 C6.52576241 4.7681072 12.77352578 9.8494239 19 15 C17.30859375 15.76171875 17.30859375 15.76171875 15 16 C12.59765625 14.26953125 12.59765625 14.26953125 10.0625 11.8125 C7.49398808 9.3551447 5.02926388 7.02195806 2.18359375 4.88671875 C1.46300781 4.26410156 0.74242188 3.64148438 0 3 C0 2.01 0 1.02 0 0 Z " fill="#101828" transform="translate(95,198)"/>
<path d="M0 0 C6.92845425 -0.78732435 12.9776715 1.627876 19 5 C19.33 5.99 19.66 6.98 20 8 C12.95001999 6.50865808 6.59278183 3.87884807 0 1 C0 0.67 0 0.34 0 0 Z " fill="#101828" transform="translate(164,246)"/>
<path d="M0 0 C0.99 0 1.98 0 3 0 C3 4.95 3 9.9 3 15 C2.01 15.33 1.02 15.66 0 16 C0 10.72 0 5.44 0 0 Z " fill="#101828" transform="translate(0,0)"/>
<path d="M0 0 C0.66 0 1.32 0 2 0 C3.62946228 2.30595384 5.1435897 4.60196707 6.625 7 C7.04523437 7.66773438 7.46546875 8.33546875 7.8984375 9.0234375 C8.93864592 10.67831454 9.97014051 12.33866288 11 14 C10.01 14 9.02 14 8 14 C5.95703125 11.4453125 5.95703125 11.4453125 3.8125 8.125 C3.09707031 7.03445312 2.38164063 5.94390625 1.64453125 4.8203125 C0 2 0 2 0 0 Z " fill="#101828" transform="translate(44,138)"/>
<path d="M0 0 C4.39642348 0.5024484 6.7948982 1.97295941 10 5 C10.33 5.99 10.66 6.98 11 8 C6.40378078 6.5129879 3.53027653 4.20187872 0 1 C0 0.67 0 0.34 0 0 Z " fill="#101828" transform="translate(112,214)"/>
<path d="M0 0 C3 0 3 0 4.640625 1.609375 C5.17171875 2.31578125 5.7028125 3.0221875 6.25 3.75 C6.79140625 4.44609375 7.3328125 5.1421875 7.890625 5.859375 C9 8 9 8 8.671875 10.265625 C8.45015625 10.83796875 8.2284375 11.4103125 8 12 C6.66382103 10.18959679 5.33112616 8.3766216 4 6.5625 C3.2575 5.55316406 2.515 4.54382813 1.75 3.50390625 C0 1 0 1 0 0 Z " fill="#101828" transform="translate(53,153)"/>
<path d="M0 0 C1.31823302 0.59155331 2.62947051 1.19871463 3.9375 1.8125 C5.03384766 2.31716797 5.03384766 2.31716797 6.15234375 2.83203125 C8 4 8 4 9 7 C7.68 6.67 6.36 6.34 5 6 C5 5.34 5 4.68 5 4 C4.360625 3.896875 3.72125 3.79375 3.0625 3.6875 C2.381875 3.460625 1.70125 3.23375 1 3 C0.67 2.01 0.34 1.02 0 0 Z " fill="#101828" transform="translate(149,236)"/>
<path d="M0 0 C2.64 1.65 5.28 3.3 8 5 C6.68 5.33 5.36 5.66 4 6 C1.75 4.1875 1.75 4.1875 0 2 C0 1.34 0 0.68 0 0 Z " fill="#101828" transform="translate(122,219)"/>

</svg>
